<?xml version="1.0" encoding="utf-8"?>
<!-- Generator: Adobe Illustrator 23.0.6, SVG Export Plug-In . SVG Version: 6.00 Build 0)  -->
<svg version="1.1" id="Layer_1" xmlns="http://www.w3.org/2000/svg" xmlns:xlink="http://www.w3.org/1999/xlink" x="0px" y="0px"
	 viewBox="0 0 100 100" style="enable-background:new 0 0 100 100;" xml:space="preserve">
<style type="text/css">
	.st0{fill:#BADC58;}
</style>
<path class="st0" d="M39.1,95.7c0-5.5,4.5-9.9,9.9-9.9s9.9,4.5,9.9,9.9v2h15.9V22.2h-8V14c5.6-0.9,9.9-5.8,9.9-11.8
	c-5.9,0-10.8,4.3-11.8,9.9h-0.4C63.8,6.6,58.9,2.3,53,2.3c0,5.9,4.3,10.8,9.9,11.8v8.1H37.1V14C42.7,13.1,47,8.2,47,2.3
	c-5.9,0-10.8,4.3-11.8,9.9h-0.4C34,6.6,29.1,2.3,23.2,2.3c0,5.9,4.3,10.8,9.9,11.8v8.1h-9.9v75.6h15.9V95.7z M55,30.1h9.9v9.9H55
	V30.1z M55,48h9.9V58H55V48z M55,65.9h9.9v9.9H55V65.9z M33.1,30.1H43v9.9h-9.9V30.1z M33.1,48H43V58h-9.9V48z M33.1,65.9H43v9.9
	h-9.9V65.9z"/>
</svg>
