<svg xmlns="http://www.w3.org/2000/svg" viewBox="0 0 53.7 95.46"><defs><style>.cls-1{fill:#badc58;}</style></defs><title>Asset 1svg</title><g id="Layer_2" data-name="Layer 2"><g id="Layer_1-2" data-name="Layer 1"><path class="cls-1" d="M15.91,93.47a9.95,9.95,0,0,1,19.89,0v2H51.71V19.89h-8V11.75A11.93,11.93,0,0,0,53.7,0,11.93,11.93,0,0,0,41.94,9.94h-.36A11.91,11.91,0,0,0,29.83,0a11.92,11.92,0,0,0,9.94,11.75v8.14H13.92V11.75A11.92,11.92,0,0,0,23.86,0,11.92,11.92,0,0,0,12.11,9.94h-.36A11.92,11.92,0,0,0,0,0,11.92,11.92,0,0,0,9.94,11.75v8.14H0V95.46H15.91ZM31.82,27.84h9.94v10H31.82Zm0,17.9h9.94v9.94H31.82Zm0,17.9h9.94v9.94H31.82ZM9.94,27.84h10v10h-10Zm0,17.9h10v9.94h-10Zm0,17.9h10v9.94h-10Z"/></g></g></svg>